<svg xmlns="http://www.w3.org/2000/svg" width="74" height="74" viewBox="0 0 74 74" fill="none">
    <path fill-rule="evenodd" clip-rule="evenodd" d="M37.1704 9.08604V2V9.08604ZM50.2175 12.3238L53.5442 6.0672L50.2175 12.3238ZM60.319 21.3484L66.1236 17.2841L60.319 21.3484ZM65.0772 34.0184L72.1104 33.1549L65.0772 34.0184ZM63.4599 47.4678L70.0753 50.0072L63.4599 47.4678ZM55.7903 58.6651L60.5318 63.9311L55.7903 58.6651ZM43.8886 64.953L45.6029 71.8286L43.8886 64.953ZM30.4522 64.953L28.738 71.8286L30.4522 64.953ZM18.5506 58.6651L13.8091 63.9311L18.5506 58.6651ZM10.881 47.4678L4.2656 50.0072L10.881 47.4678ZM9.26369 34.0184L2.23047 33.1549L9.26369 34.0184ZM14.0219 21.3484L8.21731 17.2841L14.0219 21.3484ZM24.1234 12.3238L20.7967 6.0672L24.1234 12.3238Z" fill="#E1F2FA"/>
    <path d="M35.4204 9.08604C35.4204 10.0525 36.2039 10.836 37.1704 10.836C38.1369 10.836 38.9204 10.0525 38.9204 9.08604H35.4204ZM38.9204 2C38.9204 1.0335 38.1369 0.25 37.1704 0.25C36.2039 0.25 35.4204 1.0335 35.4204 2H38.9204ZM48.6724 11.5022C48.2186 12.3556 48.5426 13.4152 49.3959 13.869C50.2493 14.3227 51.3089 13.9987 51.7627 13.1454L48.6724 11.5022ZM55.0894 6.88877C55.5431 6.03541 55.2192 4.97578 54.3658 4.52204C53.5124 4.0683 52.4528 4.39226 51.9991 5.24563L55.0894 6.88877ZM59.3153 19.9149C58.5236 20.4693 58.3312 21.5605 58.8855 22.3522C59.4399 23.1439 60.5311 23.3363 61.3228 22.782L59.3153 19.9149ZM67.1273 18.7176C67.919 18.1632 68.1115 17.072 67.5571 16.2803C67.0027 15.4886 65.9115 15.2962 65.1198 15.8505L67.1273 18.7176ZM64.8639 32.2815C63.9046 32.3993 63.2225 33.2724 63.3402 34.2317C63.458 35.191 64.3312 35.8732 65.2905 35.7554L64.8639 32.2815ZM72.3237 34.8918C73.283 34.774 73.9652 33.9009 73.8474 32.9416C73.7296 31.9823 72.8564 31.3001 71.8971 31.4179L72.3237 34.8918ZM64.087 45.8341C63.1847 45.4877 62.1725 45.9384 61.8261 46.8407C61.4798 47.743 61.9304 48.7552 62.8328 49.1016L64.087 45.8341ZM69.4481 51.641C70.3504 51.9874 71.3627 51.5367 71.7091 50.6344C72.0554 49.7321 71.6047 48.7198 70.7024 48.3735L69.4481 51.641ZM57.0908 57.4941C56.4441 56.7759 55.3376 56.7179 54.6193 57.3646C53.9011 58.0113 53.8431 59.1178 54.4898 59.8361L57.0908 57.4941ZM59.2313 65.102C59.878 65.8203 60.9845 65.8783 61.7028 65.2316C62.421 64.5849 62.479 63.4783 61.8323 62.7601L59.2313 65.102ZM45.5867 64.5297C45.3528 63.5919 44.4031 63.0212 43.4653 63.255C42.5275 63.4888 41.9568 64.4386 42.1906 65.3764L45.5867 64.5297ZM43.9049 72.2519C44.1387 73.1897 45.0885 73.7604 46.0263 73.5266C46.9641 73.2928 47.5347 72.343 47.3009 71.4052L43.9049 72.2519ZM32.1503 65.3764C32.3841 64.4386 31.8134 63.4888 30.8756 63.255C29.9378 63.0212 28.988 63.5919 28.7542 64.5297L32.1503 65.3764ZM27.04 71.4052C26.8061 72.343 27.3768 73.2928 28.3146 73.5266C29.2524 73.7604 30.2022 73.1897 30.436 72.2519L27.04 71.4052ZM19.8511 59.8361C20.4978 59.1178 20.4398 58.0113 19.7216 57.3646C19.0033 56.7179 17.8968 56.7759 17.2501 57.4941L19.8511 59.8361ZM12.5086 62.7601C11.8619 63.4783 11.9199 64.5849 12.6381 65.2316C13.3564 65.8783 14.4629 65.8203 15.1096 65.102L12.5086 62.7601ZM11.5081 49.1016C12.4104 48.7552 12.8611 47.743 12.5148 46.8407C12.1684 45.9384 11.1561 45.4877 10.2538 45.8341L11.5081 49.1016ZM3.63845 48.3735C2.73615 48.7198 2.28547 49.7321 2.63183 50.6344C2.97819 51.5367 3.99044 51.9874 4.89274 51.641L3.63845 48.3735ZM9.05042 35.7554C10.0097 35.8732 10.8829 35.191 11.0006 34.2317C11.1184 33.2724 10.4363 32.3993 9.47696 32.2815L9.05042 35.7554ZM2.44374 31.4179C1.48445 31.3001 0.6113 31.9823 0.493513 32.9416C0.375726 33.9009 1.0579 34.774 2.0172 34.8918L2.44374 31.4179ZM13.0181 22.782C13.8098 23.3363 14.901 23.1439 15.4554 22.3522C16.0097 21.5605 15.8173 20.4693 15.0256 19.9149L13.0181 22.782ZM9.22107 15.8505C8.42936 15.2962 7.33815 15.4886 6.78379 16.2803C6.22943 17.072 6.42184 18.1632 7.21355 18.7176L9.22107 15.8505ZM22.5782 13.1454C23.032 13.9987 24.0916 14.3227 24.9449 13.869C25.7983 13.4152 26.1223 12.3556 25.6685 11.5022L22.5782 13.1454ZM22.3418 5.24562C21.8881 4.39226 20.8285 4.0683 19.9751 4.52204C19.1217 4.97578 18.7978 6.03541 19.2515 6.88877L22.3418 5.24562ZM38.9204 9.08604V2H35.4204V9.08604H38.9204ZM51.7627 13.1454L55.0894 6.88877L51.9991 5.24563L48.6724 11.5022L51.7627 13.1454ZM61.3228 22.782L67.1273 18.7176L65.1198 15.8505L59.3153 19.9149L61.3228 22.782ZM65.2905 35.7554L72.3237 34.8918L71.8971 31.4179L64.8639 32.2815L65.2905 35.7554ZM62.8328 49.1016L69.4481 51.641L70.7024 48.3735L64.087 45.8341L62.8328 49.1016ZM54.4898 59.8361L59.2313 65.102L61.8323 62.7601L57.0908 57.4941L54.4898 59.8361ZM42.1906 65.3764L43.9049 72.2519L47.3009 71.4052L45.5867 64.5297L42.1906 65.3764ZM28.7542 64.5297L27.04 71.4052L30.436 72.2519L32.1503 65.3764L28.7542 64.5297ZM17.2501 57.4941L12.5086 62.7601L15.1096 65.102L19.8511 59.8361L17.2501 57.4941ZM10.2538 45.8341L3.63845 48.3735L4.89274 51.641L11.5081 49.1016L10.2538 45.8341ZM9.47696 32.2815L2.44374 31.4179L2.0172 34.8918L9.05042 35.7554L9.47696 32.2815ZM15.0256 19.9149L9.22107 15.8505L7.21355 18.7176L13.0181 22.782L15.0256 19.9149ZM25.6685 11.5022L22.3418 5.24562L19.2515 6.88877L22.5782 13.1454L25.6685 11.5022Z" fill="#FAFAFA"/>
    <path fill-rule="evenodd" clip-rule="evenodd" d="M55.2 38.0499C45.7283 38.0499 38.05 30.3716 38.05 20.8999C38.05 30.3716 30.3717 38.0499 20.9 38.0499C30.3717 38.0499 38.05 45.7282 38.05 55.1999C38.05 45.7282 45.7283 38.0499 55.2 38.0499Z" fill="#FECE00" stroke="#FAFAFA" stroke-width="3.5" stroke-linecap="round" stroke-linejoin="round"/>
</svg>
