<svg xmlns="http://www.w3.org/2000/svg" width="49" height="73" viewBox="0 0 49 73" fill="none">
    <path fill-rule="evenodd" clip-rule="evenodd" d="M9.23823 71.9247H10.5586C12.5776 71.9247 14.2142 70.3579 14.2142 68.4212V2C14.2142 2 6.50707 5.14482 2.5101 18.3485C1.22157 22.6051 0.880604 30.2943 1.32523 34.3016C1.76986 38.3089 4.94462 38.8915 7.67713 42.1682C7.67713 43.3487 5.08417 68.4371 5.08417 68.4371C4.88589 70.3633 6.36288 71.9247 8.37328 71.9247H9.23823Z" fill="white" stroke="#A5BDC7" stroke-width="2" stroke-linecap="round" stroke-linejoin="round"/>
    <path fill-rule="evenodd" clip-rule="evenodd" d="M40.0038 30.7092H35.4809L33.7491 68.103C33.6514 70.2139 35.3537 71.925 37.5543 71.925H37.8949C40.0942 71.925 41.7996 70.2195 41.7034 68.103L40.0038 30.7092Z" fill="white" stroke="#A5BDC7" stroke-width="2" stroke-linecap="round" stroke-linejoin="round"/>
    <path fill-rule="evenodd" clip-rule="evenodd" d="M28.8264 25.0637C28.8264 28.1816 31.666 30.7091 35.176 30.7091H40.2733C43.78 30.7091 46.6228 28.1817 46.6228 25.0637L29.9042 25.0637H28.8264Z" fill="white" stroke="#A5BDC7" stroke-width="3" stroke-linecap="round" stroke-linejoin="round"/>
    <path fill-rule="evenodd" clip-rule="evenodd" d="M40.6907 25.063L40.6907 2.479L40.6907 25.063Z" fill="white"/>
    <path d="M40.6907 25.063L40.6907 2.479" stroke="#A5BDC7" stroke-width="3" stroke-linecap="round" stroke-linejoin="round"/>
    <path fill-rule="evenodd" clip-rule="evenodd" d="M34.7585 25.063L34.7585 2.479L34.7585 25.063Z" fill="white"/>
    <path d="M34.7585 25.063L34.7585 2.479" stroke="#A5BDC7" stroke-width="3" stroke-linecap="round" stroke-linejoin="round"/>
    <path fill-rule="evenodd" clip-rule="evenodd" d="M28.8264 2.479L28.8264 24.9047L28.8264 2.479Z" fill="white"/>
    <path d="M28.8264 2.479L28.8264 24.9047" stroke="#A5BDC7" stroke-width="3" stroke-linecap="round" stroke-linejoin="round"/>
    <path fill-rule="evenodd" clip-rule="evenodd" d="M46.6228 24.9047L46.6228 2.479L46.6228 24.9047Z" fill="white"/>
    <path d="M46.6228 24.9047L46.6228 2.479" stroke="#A5BDC7" stroke-width="3" stroke-linecap="round" stroke-linejoin="round"/>
</svg>
