<svg xmlns="http://www.w3.org/2000/svg" width="69" height="69" viewBox="0 0 69 69" fill="none">
    <path fill-rule="evenodd" clip-rule="evenodd" d="M51.4 15H59.8438C63.796 15 67 18.1998 67 22.1532V46.8468C67 50.7974 63.7989 54 59.8438 54H51.4V61.1458C51.4 64.379 48.7789 67 45.5514 67H7.84862C4.61852 67 2 64.3815 2 61.1458V3.94532C2 2.87095 2.8784 2 3.95175 2H49.4482C50.5262 2 51.4 2.86971 51.4 3.94532V15ZM51.4 21.5H58.55C59.627 21.5 60.5 22.3725 60.5 23.4542V45.5458C60.5 46.6251 59.6242 47.5 58.55 47.5H51.4V21.5Z" fill="#FF9797"/>
    <path d="M51.4 13.25C50.4335 13.25 49.65 14.0335 49.65 15C49.65 15.9665 50.4335 16.75 51.4 16.75V13.25ZM51.4 54V52.25C50.4335 52.25 49.65 53.0335 49.65 54H51.4ZM51.4 19.75C50.4335 19.75 49.65 20.5335 49.65 21.5C49.65 22.4665 50.4335 23.25 51.4 23.25V19.75ZM51.4 47.5H49.65C49.65 48.4665 50.4335 49.25 51.4 49.25V47.5ZM51.4 16.75H59.8438V13.25H51.4V16.75ZM59.8438 16.75C62.8307 16.75 65.25 19.1675 65.25 22.1532H68.75C68.75 17.2322 64.7614 13.25 59.8438 13.25V16.75ZM65.25 22.1532V46.8468H68.75V22.1532H65.25ZM65.25 46.8468C65.25 49.8307 62.8326 52.25 59.8438 52.25V55.75C64.7651 55.75 68.75 51.7641 68.75 46.8468H65.25ZM59.8438 52.25H51.4V55.75H59.8438V52.25ZM49.65 54V61.1458H53.15V54H49.65ZM49.65 61.1458C49.65 63.4136 47.8113 65.25 45.5514 65.25V68.75C49.7465 68.75 53.15 65.3444 53.15 61.1458H49.65ZM45.5514 65.25H7.84862V68.75H45.5514V65.25ZM7.84862 65.25C5.58609 65.25 3.75 63.4161 3.75 61.1458H0.25C0.25 65.347 3.65094 68.75 7.84862 68.75V65.25ZM3.75 61.1458V3.94532H0.25V61.1458H3.75ZM3.75 3.94532C3.75 3.84555 3.83677 3.75 3.95175 3.75V0.25C1.92002 0.25 0.25 1.89635 0.25 3.94532H3.75ZM3.95175 3.75H49.4482V0.25H3.95175V3.75ZM49.4482 3.75C49.5658 3.75 49.65 3.84238 49.65 3.94532H53.15C53.15 1.89704 51.4865 0.25 49.4482 0.25V3.75ZM49.65 3.94532V15H53.15V3.94532H49.65ZM51.4 23.25H58.55V19.75H51.4V23.25ZM58.55 23.25C58.6583 23.25 58.75 23.3369 58.75 23.4542H62.25C62.25 21.4081 60.5956 19.75 58.55 19.75V23.25ZM58.75 23.4542V45.5458H62.25V23.4542H58.75ZM58.75 45.5458C58.75 45.6605 58.6558 45.75 58.55 45.75V49.25C60.5927 49.25 62.25 47.5896 62.25 45.5458H58.75ZM58.55 45.75H51.4V49.25H58.55V45.75ZM53.15 47.5V21.5H49.65V47.5H53.15Z" fill="white"/>
    <path d="M2 24.75L10.2414 31.25L18.4848 24.75L26.7 31.25L35.1416 24.75L43.2197 31.25L51.4 24.75" stroke="white" stroke-width="3.5" stroke-linecap="round" stroke-linejoin="round"/>
    <path d="M51.4 37.75L43.2197 44.1694L35.1416 37.75L26.7 44.1694L18.4848 37.75L10.2414 44.1694L2 37.75" stroke="white" stroke-width="3.5" stroke-linecap="round" stroke-linejoin="round"/>
</svg>
