<svg xmlns="http://www.w3.org/2000/svg" width="67" height="74" viewBox="0 0 67 74" fill="none">
    <path fill-rule="evenodd" clip-rule="evenodd" d="M54.4492 2.35669C61.1147 12.0764 65 23.7537 65 36.3136C65 48.8538 61.1269 60.5142 54.4806 70.2248L49.1939 66.7733C55.5169 58.1926 59.239 47.6759 59.239 36.3136C59.239 24.9336 55.5053 14.4018 49.1643 5.8138L54.4492 2.35669Z" fill="#D5AD9F" stroke="#263238" stroke-width="3.5" stroke-linecap="round" stroke-linejoin="round"/>
    <path fill-rule="evenodd" clip-rule="evenodd" d="M13.9011 43.7316L2.53894 36.3135L49.1643 5.81372C55.5052 14.4017 59.2389 24.9336 59.2389 36.3135C59.2389 47.6758 55.5168 58.1925 49.1939 66.7732L34.9013 57.442C34.9013 57.7932 34.9013 58.0752 34.9013 58.2679V58.4452V62.3952C34.9013 64.2885 33.3304 65.8233 31.4013 65.8233C29.4683 65.8233 27.9013 64.2888 27.9013 62.3952V56.9856V54.847C27.9013 52.9516 26.3343 51.4116 24.4013 51.4116C22.4723 51.4116 20.9013 52.9497 20.9013 54.847V57.5999V68.5644C20.9013 70.4617 19.3304 71.9998 17.4013 71.9998C15.4683 71.9998 13.9013 70.4598 13.9013 68.5644V58.8994V47.985C13.9013 47.4398 13.9012 45.7974 13.9011 43.7316Z" fill="#FECA57" stroke="#263238" stroke-width="3.5" stroke-linecap="round" stroke-linejoin="round"/>
    <ellipse cx="51" cy="32.196" rx="1.4" ry="1.37255" fill="#263238"/>
    <ellipse cx="48.2001" cy="15.7253" rx="1.4" ry="1.37255" fill="#263238"/>
    <path fill-rule="evenodd" clip-rule="evenodd" d="M21.6 33.5686H19.5045C17.9557 33.5686 16.7 34.7976 16.7 36.3137C16.7 37.8267 17.9556 39.0588 19.5045 39.0588H21.6V39.0614C21.6 40.5762 22.8536 41.8039 24.4 41.8039C25.9432 41.8039 27.2 40.576 27.2 39.0614V33.566C27.2 32.0511 25.9464 30.8235 24.4 30.8235C22.8567 30.8235 21.6 32.0513 21.6 33.566V33.5686Z" fill="#D5AD9F" stroke="#263238" stroke-width="3.5" stroke-linecap="round" stroke-linejoin="round"/>
    <ellipse cx="40.5" cy="26.7058" rx="4.2" ry="4.11765" fill="#F9545B" stroke="#263238" stroke-width="3.5" stroke-linecap="round" stroke-linejoin="round"/>
    <ellipse cx="37.7" cy="47.9802" rx="2.8" ry="2.7451" fill="#F9545B" stroke="#263238" stroke-width="3.5" stroke-linecap="round" stroke-linejoin="round"/>
    <ellipse cx="49.6001" cy="42.4902" rx="2.8" ry="2.7451" fill="#F9545B" stroke="#263238" stroke-width="3.5" stroke-linecap="round" stroke-linejoin="round"/>
</svg>
