<svg xmlns="http://www.w3.org/2000/svg" width="121" height="70" viewBox="0 0 121 70" fill="none">
    <circle cx="106" cy="22" r="15" fill="#20B25D"/>
    <path d="M44.7936 65.1717C36.4816 65.0476 28.1903 64.9234 19.8784 64.7786C19.8784 64.8614 19.8784 64.9441 19.8578 65.0269C21.7918 65.1096 23.7257 65.2545 25.6597 65.2959C29.8979 65.3993 34.1568 65.4407 38.395 65.5648C40.7816 65.6269 43.1682 65.8131 45.5548 65.9372C49.0318 66.1027 52.5089 66.2476 55.9653 66.3924C56.0065 66.3924 56.0682 66.4752 56.2122 66.5993C49.7313 66.5993 43.3534 66.5993 36.9754 66.5993C36.9754 66.6407 36.9754 66.7027 36.9754 66.7441C38.7859 66.7441 40.5759 66.7441 42.3864 66.7441C42.3864 66.8476 42.3864 66.951 42.407 67.0751C40.5347 67.1786 38.6831 67.3648 36.8108 67.3648C32.2228 67.3648 27.6554 67.22 23.0674 67.22C19.0143 67.1993 15.3521 66.02 11.9779 63.7648C11.0521 63.1441 10.1674 62.4821 9.22101 61.9028C11.0727 63.8476 13.1712 65.42 15.7636 66.2062C17.4506 66.7234 19.1377 67.3234 20.8659 67.551C22.9233 67.82 25.0219 67.7579 27.0999 67.82C30.5152 67.9441 33.9305 68.0682 37.3458 68.1717C38.4362 68.2131 39.5266 68.1303 40.617 68.1717C44.1969 68.2958 47.7768 68.4407 51.3567 68.7096C49.8137 68.7096 48.25 68.7096 46.707 68.7096C46.707 68.7717 46.6864 68.8544 46.6864 68.9165C48.6203 69.1027 50.5337 69.2889 51.8299 69.4131C50.2251 69.4131 47.9826 69.3924 45.7606 69.4131C44.1352 69.4337 42.5099 69.5372 40.8639 69.5993C40.5965 69.5993 40.2673 69.682 40.0615 69.5579C38.9094 68.9372 37.7984 69.4751 36.6668 69.5993C36.3171 69.6406 35.8644 69.9303 35.6793 69.2889C35.6587 69.2269 35.3501 69.2269 35.1855 69.2269C33.6219 69.2682 32.0582 69.3924 30.4946 69.3717C28.0051 69.351 25.5362 69.2268 23.0468 69.1648C20.3104 69.1027 17.7181 68.3993 15.2286 67.3027C15.0846 67.2407 14.92 67.1786 14.7554 67.1372C14.5085 67.0752 14.2411 67.0131 13.953 67.0751C16.1545 68.3786 18.5822 69.1027 21.0922 69.3717C23.6229 69.6406 26.174 69.6406 28.8898 69.7855C27.2027 69.8682 25.7008 70.0751 24.2195 69.9717C21.8535 69.8268 19.4463 69.9923 17.1214 69.1648C12.3071 67.4682 8.04828 64.9235 5.04447 60.7235C3.58371 58.6752 2.36984 56.4201 1.38228 54.1029C0.682765 52.4063 0.477022 50.4822 0.209559 48.6409C-0.263645 45.3719 0.20956 42.103 0.230134 38.8341C0.250708 36.3306 0.250708 33.8065 0.230134 31.3031C0.188986 26.4825 0.0861141 21.6411 0.106688 16.8205C0.106688 14.8757 0.415302 12.9516 0.45645 11.0068C0.497598 9.31024 0.353578 7.59302 0.333004 5.89649C0.31243 4.32409 0.31243 2.731 0.333004 1.1586C0.333004 0.786194 0.394725 0.413789 0.415299 0.103447C1.9995 0.103447 3.50141 0.124137 4.98275 0.103447C7.78082 0.0620683 10.5789 0 13.377 0C17.6152 0 21.8535 0.0620607 26.0917 0.0827502C32.2022 0.10344 38.3127 0.0413688 44.4232 0.144816C46.9744 0.186195 49.6285 0.144816 52.0151 0.868946C58.8045 2.89651 64.0715 6.86889 67.2193 13.5516C69.1739 17.7308 69.4207 22.0549 69.4825 26.5032C69.5236 29.379 69.7088 32.2548 69.8117 35.1514C69.894 37.6962 69.9351 40.2617 69.9762 42.8064C69.9968 44.5857 70.0174 46.3857 69.9762 48.165C69.8939 52.2822 69.7499 56.4201 69.6471 60.5373C69.6059 62.2545 69.5853 63.9717 69.5442 65.689C69.5442 66.0407 69.4413 66.4131 69.3796 66.7648C69.2767 66.7648 69.1739 66.7648 69.071 66.7441C68.8652 61.5511 68.6389 56.358 68.4332 51.1443C68.3715 51.1443 68.3303 51.1443 68.2686 51.1443C68.1246 53.0477 68.0011 54.9304 67.8571 56.8339C67.8365 56.8339 67.816 56.8339 67.7954 56.8339C67.6308 53.896 67.4662 50.9581 67.3016 48.0409C67.2605 48.0409 67.2193 48.0409 67.1782 48.0409C67.1782 51.0408 67.1782 54.0201 67.1782 57.0201C67.0959 57.0201 66.993 57.0201 66.9107 57.0408C66.7255 54.5373 66.4992 52.0546 66.3346 49.5512C66.1289 46.4271 65.9026 43.303 65.7586 40.1789C65.6557 37.9858 65.6968 35.7927 65.5734 33.5997C65.3265 28.6963 65.6763 23.7101 64.4007 18.9102C62.261 10.924 56.3562 5.79303 48.106 4.94477C44.917 4.61374 41.6663 4.84133 38.4568 4.86202C27.82 4.96546 17.2037 5.08959 6.56695 5.21373C6.29948 5.21373 6.03202 5.21373 5.59997 5.21373C5.59997 6.53785 5.59997 7.79991 5.59997 9.04127C5.59997 21.4136 5.59997 33.7858 5.57939 46.1788C5.55882 56.3787 13.809 64.5303 23.952 64.4683C28.7046 64.4476 33.4573 64.6959 38.2099 64.82C40.0204 64.8614 41.8309 64.9027 43.6414 64.9234C44.0323 64.9234 44.4232 64.9234 44.8347 64.9234C44.7936 64.9855 44.7936 65.089 44.7936 65.1717ZM4.83873 42.8064C4.8593 42.8064 4.8593 42.8064 4.87988 42.8064C4.87988 40.1168 4.87988 37.4065 4.87988 34.7169C4.8593 34.7169 4.8593 34.7169 4.83873 34.7169C4.83873 37.4065 4.83873 40.0961 4.83873 42.8064ZM6.19662 60.7442C6.13489 60.8063 6.0526 60.8683 5.99087 60.9304C6.81384 61.7787 7.6368 62.6062 8.43919 63.4545C8.54206 63.3717 8.62435 63.2683 8.72722 63.1855C7.88369 62.358 7.04015 61.5511 6.19662 60.7442Z" fill="#20B25D"/>
    <path d="M4.85938 44.4823C4.87074 44.4823 4.87996 41.9164 4.87996 38.7513C4.87996 35.5862 4.87074 33.0204 4.85938 33.0204C4.84802 33.0204 4.83881 35.5862 4.83881 38.7513C4.83881 41.9164 4.84802 44.4823 4.85938 44.4823Z" fill="#20B25D"/>
    <path d="M6.19665 60.7442C7.04018 61.5511 7.88372 62.358 8.72725 63.1649C8.62438 63.2476 8.54209 63.3511 8.43922 63.4339C7.61626 62.5856 6.79329 61.758 5.99091 60.9098C6.05263 60.8684 6.11435 60.8063 6.19665 60.7442Z" fill="#20B25D"/>
    <path d="M20.327 26.195V29.471H16.379V41H12.263V29.471H8.357V26.195H20.327ZM29.3468 41L26.4068 35.54H25.9658V41H21.8498V26.195H28.3388C29.5288 26.195 30.5368 26.405 31.3628 26.825C32.1888 27.231 32.8118 27.798 33.2318 28.526C33.6518 29.24 33.8618 30.045 33.8618 30.941C33.8618 31.949 33.5818 32.838 33.0218 33.608C32.4758 34.364 31.6708 34.903 30.6068 35.225L33.9458 41H29.3468ZM25.9658 32.726H28.0028C28.5628 32.726 28.9828 32.593 29.2628 32.327C29.5428 32.061 29.6828 31.676 29.6828 31.172C29.6828 30.696 29.5358 30.325 29.2418 30.059C28.9618 29.779 28.5488 29.639 28.0028 29.639H25.9658V32.726ZM39.7656 26.195V34.784C39.7656 35.582 39.9476 36.198 40.3116 36.632C40.6896 37.066 41.2566 37.283 42.0126 37.283C42.7686 37.283 43.3356 37.066 43.7136 36.632C44.1056 36.184 44.3016 35.568 44.3016 34.784V26.195H48.4176V34.784C48.4176 36.142 48.1306 37.304 47.5566 38.27C46.9826 39.222 46.1986 39.943 45.2046 40.433C44.2246 40.909 43.1326 41.147 41.9286 41.147C40.7246 41.147 39.6466 40.909 38.6946 40.433C37.7566 39.943 37.0146 39.222 36.4686 38.27C35.9366 37.318 35.6706 36.156 35.6706 34.784V26.195H39.7656ZM54.7998 29.492V31.907H59.5248V35.036H54.7998V37.703H60.1548V41H50.6838V26.195H60.1548V29.492H54.7998Z" fill="#20B25D"/>
    <path d="M82.773 27.662V30.265H79.239V41H75.99V30.265H72.456V27.662H82.773ZM87.6526 27.662V41H84.4036V27.662H87.6526ZM100.172 31.956C100.172 32.7287 99.9948 33.438 99.6401 34.084C99.2854 34.7173 98.7408 35.2303 98.0061 35.623C97.2714 36.0157 96.3594 36.212 95.2701 36.212H93.2561V41H90.0071V27.662H95.2701C96.3341 27.662 97.2334 27.8457 97.9681 28.213C98.7028 28.5803 99.2538 29.087 99.6211 29.733C99.9884 30.379 100.172 31.12 100.172 31.956ZM95.0231 33.628C95.6438 33.628 96.1061 33.4823 96.4101 33.191C96.7141 32.8997 96.8661 32.488 96.8661 31.956C96.8661 31.424 96.7141 31.0123 96.4101 30.721C96.1061 30.4297 95.6438 30.284 95.0231 30.284H93.2561V33.628H95.0231ZM106.69 41.133C105.714 41.133 104.84 40.9747 104.068 40.658C103.295 40.3413 102.674 39.8727 102.206 39.252C101.75 38.6313 101.509 37.884 101.484 37.01H104.942C104.992 37.504 105.163 37.884 105.455 38.15C105.746 38.4033 106.126 38.53 106.595 38.53C107.076 38.53 107.456 38.4223 107.735 38.207C108.013 37.979 108.153 37.6687 108.153 37.276C108.153 36.9467 108.039 36.6743 107.811 36.459C107.595 36.2437 107.323 36.0663 106.994 35.927C106.677 35.7877 106.221 35.6293 105.626 35.452C104.764 35.186 104.061 34.92 103.517 34.654C102.972 34.388 102.503 33.9953 102.111 33.476C101.718 32.9567 101.522 32.279 101.522 31.443C101.522 30.2017 101.971 29.2327 102.871 28.536C103.77 27.8267 104.942 27.472 106.386 27.472C107.855 27.472 109.039 27.8267 109.939 28.536C110.838 29.2327 111.319 30.208 111.383 31.462H107.868C107.842 31.0313 107.684 30.6957 107.393 30.455C107.101 30.2017 106.728 30.075 106.272 30.075C105.879 30.075 105.562 30.1827 105.322 30.398C105.081 30.6007 104.961 30.8983 104.961 31.291C104.961 31.7217 105.163 32.0573 105.569 32.298C105.974 32.5387 106.607 32.7983 107.469 33.077C108.33 33.3683 109.027 33.647 109.559 33.913C110.103 34.179 110.572 34.5653 110.965 35.072C111.357 35.5787 111.554 36.231 111.554 37.029C111.554 37.789 111.357 38.4793 110.965 39.1C110.585 39.7207 110.027 40.2147 109.293 40.582C108.558 40.9493 107.69 41.133 106.69 41.133Z" fill="white"/>
</svg>
